<svg xmlns="http://www.w3.org/2000/svg" viewBox="0 0 917.83 638.26"><defs><style>.cls-1{fill:none;}.cls-1,.cls-10,.cls-2,.cls-4,.cls-5,.cls-7,.cls-9{stroke:#000;stroke-miterlimit:10;}.cls-1,.cls-2{stroke-width:2px;}.cls-2{fill:#000101;}.cls-10,.cls-3{font-size:223px;letter-spacing:0.01em;}.cls-10,.cls-3,.cls-4,.cls-5,.cls-6,.cls-7,.cls-8,.cls-9{font-family:PMingLiU-ExtB;}.cls-4,.cls-5{font-size:191.18px;}.cls-5,.cls-9{fill:#e6e6e6;}.cls-6,.cls-7{font-size:196.51px;}.cls-10,.cls-7{fill:#ccc;}.cls-7{stroke-width:0.75px;}.cls-8,.cls-9{font-size:243.99px;}</style></defs><title>Asset 5</title><g id="Layer_2" data-name="Layer 2"><g id="Layer_1-2" data-name="Layer 1"><line class="cls-1" x1="409.55" y1="235.33" x2="405.27" y2="241.75"/><line class="cls-1" x1="455.57" y1="235.33" x2="460.92" y2="241.75"/><line class="cls-1" x1="432.39" y1="241.53" x2="476.39" y2="241.53"/><line class="cls-2" x1="506.39" y1="285.53" x2="475.97" y2="241.87"/><line class="cls-1" x1="409.55" y1="235.33" x2="455.57" y2="235.33"/><line class="cls-2" x1="410.39" y1="230.53" x2="428.48" y2="0.11"/><line class="cls-1" x1="428.48" y1="0.11" x2="453.39" y2="232.53"/><line class="cls-1" x1="426.06" y1="181.17" x2="438.9" y2="181.17"/><line class="cls-1" x1="413.5" y1="215.42" x2="424.39" y2="215.53"/><line class="cls-1" x1="422.99" y1="172.59" x2="438.51" y2="172.59"/><line class="cls-1" x1="328.39" y1="370.53" x2="399.39" y2="376.53"/><line class="cls-2" x1="461.39" y1="241.53" x2="428.92" y2="0.5"/><line class="cls-1" x1="446.39" y1="128.53" x2="461.39" y2="241.53"/><line class="cls-1" x1="417.47" y1="340.42" x2="414.9" y2="344.27"/><line class="cls-1" x1="445.12" y1="340.42" x2="448.34" y2="344.27"/><line class="cls-1" x1="407.51" y1="344.5" x2="457.35" y2="344.5"/><line class="cls-2" x1="399.39" y1="376.53" x2="407.22" y2="344.35"/><line class="cls-2" x1="466.34" y1="381.57" x2="457.37" y2="344.35"/><line class="cls-1" x1="417.47" y1="340.42" x2="445.12" y2="340.42"/><line class="cls-2" x1="418.64" y1="337.35" x2="429.25" y2="199.11"/><line class="cls-1" x1="429.25" y1="199.11" x2="440.5" y2="335.54"/><line class="cls-1" x1="427.39" y1="307.88" x2="435.11" y2="307.88"/><line class="cls-1" x1="422.25" y1="328.45" x2="439.61" y2="328.45"/><line class="cls-1" x1="426.75" y1="311.74" x2="436.07" y2="311.74"/><line class="cls-1" x1="338.47" y1="275.42" x2="335.9" y2="279.27"/><line class="cls-1" x1="366.12" y1="275.42" x2="369.34" y2="279.27"/><line class="cls-1" x1="328.51" y1="279.5" x2="370.39" y2="279.53"/><line class="cls-2" x1="314.39" y1="318.53" x2="328.22" y2="279.35"/><line class="cls-1" x1="338.47" y1="275.42" x2="366.12" y2="275.42"/><line class="cls-2" x1="341.64" y1="275.35" x2="352.25" y2="137.11"/><line class="cls-1" x1="352.25" y1="137.11" x2="363.5" y2="273.54"/><line class="cls-1" x1="348.39" y1="242.88" x2="356.11" y2="242.88"/><line class="cls-1" x1="343.25" y1="263.45" x2="360.61" y2="263.45"/><line class="cls-1" x1="347.75" y1="246.74" x2="357.07" y2="246.74"/><line class="cls-1" x1="501.47" y1="265.42" x2="498.9" y2="269.27"/><line class="cls-1" x1="529.12" y1="265.42" x2="532.34" y2="269.27"/><line class="cls-1" x1="495.39" y1="269.53" x2="541.35" y2="269.5"/><line class="cls-2" x1="550.34" y1="306.57" x2="541.37" y2="269.35"/><line class="cls-1" x1="501.47" y1="265.42" x2="529.12" y2="265.42"/><line class="cls-2" x1="504.64" y1="265.35" x2="515.25" y2="127.11"/><line class="cls-1" x1="515.25" y1="127.11" x2="526.5" y2="263.54"/><line class="cls-1" x1="511.39" y1="232.88" x2="519.11" y2="232.88"/><line class="cls-1" x1="506.25" y1="253.45" x2="523.61" y2="253.45"/><line class="cls-1" x1="510.75" y1="236.74" x2="520.07" y2="236.74"/><line class="cls-2" x1="405.39" y1="241.53" x2="428.45" y2="0.26"/><line class="cls-1" x1="455.39" y1="235.53" x2="460.39" y2="235.53"/><line class="cls-1" x1="406.39" y1="236.53" x2="409.68" y2="235.72"/><line class="cls-1" x1="545.39" y1="368.53" x2="468.39" y2="376.53"/><line class="cls-1" x1="428.39" y1="344.53" x2="426.39" y2="592.53"/><line class="cls-1" x1="537.39" y1="444.53" x2="442.39" y2="465.53"/><line class="cls-1" x1="407.39" y1="556.53" x2="323.39" y2="516.53"/><line class="cls-2" x1="360.39" y1="297.53" x2="391.39" y2="241.53"/><line class="cls-1" x1="391.39" y1="241.53" x2="425.39" y2="241.53"/><line class="cls-1" x1="432.39" y1="215.53" x2="443.39" y2="215.53"/><line class="cls-1" x1="507.39" y1="296.53" x2="436.39" y2="290.53"/><line class="cls-1" x1="360.39" y1="297.53" x2="422.39" y2="290.53"/><line class="cls-1" x1="550.39" y1="305.53" x2="552.39" y2="331.53"/><line class="cls-1" x1="507.39" y1="285.53" x2="509.39" y2="346.53"/><text/><line class="cls-1" x1="322.25" y1="303.54" x2="359.39" y2="303.53"/><line class="cls-1" x1="314.39" y1="319.03" x2="315.39" y2="528.03"/><line class="cls-1" x1="552.39" y1="330.03" x2="554.39" y2="458.53"/><line class="cls-1" x1="423.69" y1="590.16" x2="315.36" y2="527.58"/><line class="cls-1" x1="408.55" y1="433.9" x2="328.39" y2="418.53"/><line class="cls-1" x1="407.39" y1="492.53" x2="328.39" y2="465.53"/><line class="cls-1" x1="674.39" y1="412.53" x2="554.39" y2="458.53"/><line class="cls-1" x1="541.39" y1="392.53" x2="448.05" y2="406.13"/><line class="cls-1" x1="425.93" y1="154.16" x2="438.77" y2="154.16"/><line class="cls-1" x1="424.86" y1="160.58" x2="440.37" y2="160.58"/><line class="cls-1" x1="424.34" y1="157.9" x2="439.86" y2="157.9"/><line class="cls-1" x1="515.39" y1="130.53" x2="515.39" y2="116.53"/><line class="cls-1" x1="352.39" y1="140.03" x2="352.39" y2="126.03"/><line class="cls-1" x1="429.39" y1="201.03" x2="429.39" y2="187.03"/><line class="cls-1" x1="507.69" y1="285.2" x2="436.69" y2="279.2"/><line class="cls-1" x1="422.69" y1="280.2" x2="366.39" y2="287.53"/><line class="cls-1" x1="631.29" y1="366.7" x2="663.07" y2="369.38"/><line class="cls-1" x1="635.8" y1="324.13" x2="634.65" y2="325.86"/><line class="cls-1" x1="648.18" y1="324.13" x2="649.62" y2="325.86"/><line class="cls-1" x1="631.35" y1="325.96" x2="650.09" y2="325.97"/><line class="cls-2" x1="625.03" y1="343.42" x2="631.22" y2="325.89"/><line class="cls-1" x1="635.8" y1="324.13" x2="648.18" y2="324.13"/><line class="cls-2" x1="637.22" y1="324.1" x2="641.97" y2="262.22"/><line class="cls-1" x1="641.97" y1="262.22" x2="647.01" y2="323.29"/><line class="cls-1" x1="640.24" y1="309.57" x2="643.7" y2="309.57"/><line class="cls-1" x1="637.94" y1="318.77" x2="645.71" y2="318.77"/><line class="cls-1" x1="639.96" y1="311.29" x2="644.13" y2="311.29"/><line class="cls-2" x1="645.61" y1="334.03" x2="659.49" y2="308.96"/><line class="cls-1" x1="645.61" y1="334.03" x2="673.36" y2="330.89"/><line class="cls-1" x1="645.61" y1="334.03" x2="642.03" y2="354.17"/><text/><line class="cls-1" x1="625.03" y1="343.65" x2="625.39" y2="431.53"/><line class="cls-1" x1="732.89" y1="435.18" x2="426.39" y2="592.53"/><line class="cls-1" x1="667.17" y1="395.06" x2="631.29" y2="388.18"/><line class="cls-1" x1="659.39" y1="418.53" x2="631.29" y2="409.22"/><line class="cls-1" x1="642.03" y1="263.53" x2="642.03" y2="257.27"/><line class="cls-1" x1="673.5" y1="326.27" x2="648.3" y2="329.55"/><line class="cls-1" x1="608.39" y1="468.53" x2="452.86" y2="532.74"/><text/></g><g id="Layer_3" data-name="Layer 3"><text class="cls-3" transform="translate(98.65 243.8)">Temples</text><text class="cls-4" transform="matrix(0.58, 0.28, -0.13, 0.99, 243.89, 482.53)">Inn</text><text class="cls-5" transform="matrix(0.58, 0.28, -0.13, 0.99, 232.86, 483.15)">Inn</text><text class="cls-6" transform="matrix(0.44, -0.21, 0.42, 0.91, 519.47, 549.41)">Suites</text><text class="cls-7" transform="matrix(0.44, -0.21, 0.42, 0.91, 518.88, 558.4)">Suites</text><text class="cls-8" transform="matrix(0.5, -0.04, 0.08, 1, 403.04, 588.82)">&amp;</text><text class="cls-9" transform="matrix(0.5, -0.04, 0.08, 1, 409.35, 589.28)">&amp;</text><text class="cls-10" transform="translate(88.65 243.87)">Temples</text></g></g></svg>